<?xml version="1.0" encoding="utf-8"?>
<!-- Generator: Adobe Illustrator 24.1.1, SVG Export Plug-In . SVG Version: 6.00 Build 0)  -->
<svg version="1.1" id="Layer_1" xmlns="http://www.w3.org/2000/svg" xmlns:xlink="http://www.w3.org/1999/xlink" x="0px" y="0px"
	 viewBox="0 0 637.8 100.6" enable-background="new 0 0 637.8 100.6" xml:space="preserve">
<g>
	<g>
		<path d="M371.1,6.8c-1.7,5.7-6.1,14.3-22.6,21.2l4.3,9.7c6.5-2.2,18.5-8.6,24.7-16.8c6.2,8.3,18.2,14.6,24.7,16.8l4.3-9.7
			c-16.5-6.9-20.9-15.5-22.6-21.2H371.1z"/>
		<path d="M281.8,27c0-12.1,9.9-22,22-22c12.2,0,22,9.8,22,22c0,12.1-9.9,22-22,22C291.6,48.9,281.8,39.1,281.8,27z M293,27
			c0,6.2,4.8,11.1,10.8,11.1c6,0,10.8-5,10.8-11.1c0-6.2-4.8-11.1-10.8-11.1C297.8,15.8,293,20.8,293,27z"/>
		<polygon points="371.7,32 383.2,32 383.2,40.6 409.4,40.6 409.4,51.4 345.4,51.4 345.4,40.6 371.7,40.6 		"/>
		<path d="M356.9,74.5c0-11.5,9.3-20.8,20.8-20.8c11.5,0,20.8,9.3,20.8,20.8c0,11.5-9.3,20.8-20.8,20.8
			C366.2,95.3,356.9,86,356.9,74.5z M377.6,64.8c-5.4,0-9.7,4.4-9.7,9.7c0,5.4,4.4,9.7,9.7,9.7c5.4,0,9.7-4.4,9.7-9.7
			C387.4,69.1,383,64.8,377.6,64.8z"/>
		<polygon points="471.7,7.9 471.7,21 466.6,21 466.6,7.9 456,7.9 456,49.2 433.8,49.2 433.8,18.9 450.3,18.9 450.3,8 422.4,8 
			422.4,60.1 456,60.1 456,87.4 466.6,87.4 466.6,31.9 471.7,31.9 471.7,87.4 482.3,87.4 482.3,7.9 		"/>
		<path d="M537.6,11.2h-14.8V5.5h-11.7v5.7h-14.8v10.1h8.4c-3.7,3.4-6,8.2-6,13.6c0,10.2,8.2,18.4,18.4,18.4
			c10.2,0,18.4-8.2,18.4-18.4c0-5.4-2.3-10.2-6-13.6h8V11.2z M517.8,42.6c-4.1,0-7.5-3.3-7.5-7.4c0-4.1,3.4-7.4,7.5-7.4
			c4.2,0,7.5,3.3,7.5,7.4C525.3,39.3,522,42.6,517.8,42.6z"/>
		<polygon points="556.1,20.8 556.1,7.9 544.6,7.9 544.6,53 556.1,53 556.1,31.8 563.9,31.8 563.9,20.8 		"/>
		<polygon points="507.3,57.6 507.3,68 544.6,68 544.6,87.1 556.1,87.1 556.1,57.6 		"/>
		<polygon points="631.5,7.9 579.7,7.9 579.7,18.8 620,18.8 620,55.5 631.5,55.5 		"/>
		<polygon points="614.5,68.4 614.5,42.6 603.4,42.6 603.4,68.4 597.5,68.4 597.5,42.6 586.4,42.6 586.4,68.4 573.9,68.4 
			573.9,79.3 637.6,79.3 637.6,68.4 		"/>
		<polygon points="335.7,52.2 272,52.2 272,63.1 298,63.1 298,87 309.5,87 309.5,63.1 335.7,63.1 		"/>
	</g>
	<path fill="#005826" d="M0,32.9C0,14.7,14.8,0,32.9,0c18.2,0,32.9,14.7,32.9,32.9c0,18.2-14.7,32.9-32.9,32.9
		C14.8,65.8,0,51.1,0,32.9z M32.9,49c8.9,0,16.1-7.2,16.1-16.1c0-8.9-7.2-16.1-16.1-16.1c-8.9,0-16.1,7.2-16.1,16.1
		C16.8,41.8,24,49,32.9,49z"/>
	<polygon fill="#B82841" points="164.5,61.1 220.7,61.1 220.7,44.5 181.1,44.5 181.1,21.6 220.7,21.6 220.7,5 164.5,5 	"/>
	<polygon fill="#0E4E96" points="112.9,2.7 71.5,51.9 84.3,62.6 112.9,28.5 141.8,62.8 154.5,52.1 	"/>
	<g>
		<path d="M8.7,84.6l1.3,7.5c0.2,1.1,0.2,2.2,0.3,3.4h0c0.1-1.1,0.2-2.2,0.5-3.4l1.6-7.5h2.5l2,10.9h0c0.1-1.1,0.1-2.2,0.3-3.3
			l1.2-7.6h3.3l-3.3,15.8h-2.7L14.2,92c-0.1-1-0.3-1.9-0.4-2.9h0c-0.2,1-0.3,1.9-0.5,2.9l-1.8,8.3H8.7L5.5,84.6H8.7z"/>
		<path d="M35.4,92.5c0,5.9-2.8,8.2-5.5,8.2c-2.8,0-5.5-2.2-5.5-8.2c0-5.9,2.8-8.1,5.5-8.1C32.6,84.3,35.4,86.5,35.4,92.5z
			 M29.8,97.7c2.1,0,2.2-4,2.2-5.3c0-1.4-0.1-5.3-2.2-5.3c-2.1,0-2.2,3.9-2.2,5.3C27.6,93.7,27.8,97.7,29.8,97.7z"/>
		<path d="M49.4,92.5c0,5.9-2.8,8.2-5.5,8.2c-2.8,0-5.6-2.2-5.6-8.2c0-5.9,2.8-8.1,5.6-8.1C46.6,84.3,49.4,86.5,49.4,92.5z
			 M43.8,97.7c2.1,0,2.2-4,2.2-5.3c0-1.4-0.1-5.3-2.2-5.3c-2.1,0-2.2,3.9-2.2,5.3C41.6,93.7,41.7,97.7,43.8,97.7z"/>
		<path d="M59.3,88.1c-0.6-0.5-1.4-1-2.3-1c-1,0-1.6,0.6-1.6,1.5c0,2.6,4.8,2.7,4.8,7c0,2.8-1.6,4.9-4.6,4.9c-0.9,0-2-0.3-2.7-0.8
			v-3c0.7,0.5,1.4,0.8,2.4,0.8c1,0,1.8-0.7,1.8-1.7c0-1.2-1-1.7-1.8-2.3c-1.8-1.2-2.9-2.4-2.9-4.7c0-2.5,1.4-4.7,4.1-4.7
			c1,0,1.9,0.3,2.8,0.8V88.1z"/>
		<path d="M74.3,92.5c0,5.9-2.8,8.2-5.6,8.2c-2.8,0-5.5-2.2-5.5-8.2c0-5.9,2.8-8.1,5.5-8.1C71.6,84.3,74.3,86.5,74.3,92.5z
			 M68.8,97.7c2.1,0,2.2-4,2.2-5.3c0-1.4-0.1-5.3-2.2-5.3c-2.1,0-2.2,3.9-2.2,5.3C66.6,93.7,66.7,97.7,68.8,97.7z"/>
		<path d="M80.7,84.6l3.9,9.5l0-0.1c-0.2-0.8-0.2-1.6-0.2-2.4v-7.1h3.1v15.8h-3l-3.9-9.5l0,0l0.1,1.6l0,0.7v7.2h-3.1V84.6H80.7z"/>
		<path d="M101.7,91.6v1.2c0,3.4-0.8,7.8-5.1,7.8c-4.3,0-5.6-4.6-5.6-8.1c0-3.6,1.2-8.2,5.6-8.2c2.4,0,4,1.5,4.7,3.8l-3,1.2
			c-0.1-0.8-0.4-2-1.6-2c-2.1-0.1-2.3,3.8-2.3,5.3c0,1.6,0.1,5.3,2.4,5.3c1.6,0,1.8-2.1,1.8-3.2h-2v-2.9H101.7z"/>
		<path d="M115,84.6v10.2c0,1.2-0.2,3,1.5,3c1.5,0,1.5-1.2,1.6-2.3V84.6h3.1v11.5c0,1.7-0.2,4.5-4.7,4.5c-2.9,0-4.6-1.4-4.6-4.3
			V84.6H115z"/>
		<path d="M128.4,84.6l3.9,9.5l0-0.1c-0.2-0.8-0.2-1.6-0.2-2.4v-7.1h3.1v15.8h-2.9l-3.9-9.5l0,0l0.1,1.6l0,0.7v7.2h-3.1V84.6H128.4z
			"/>
		<path d="M142.4,84.6v15.8h-3.1V84.6H142.4z"/>
		<path d="M148.7,84.6l1.9,7.6c0.3,0.9,0.4,1.8,0.6,2.7h0c0.2-0.9,0.2-1.8,0.5-2.7l1.9-7.5h3.3l-4.4,15.8h-2.6l-4.6-15.8H148.7z"/>
		<path d="M166,84.6v2.9h-3.2v3.4h2.8v2.9h-2.8v3.6h3.2v2.9h-6.3V84.6H166z"/>
		<path d="M170.2,100.4V84.6h3.1c2,0,5.5,0.2,5.5,4.5c0,1.7-0.7,3.2-2.2,4.1l2.7,7.2h-3.3l-2.7-7.3h0v7.3H170.2z M173.3,91.4l0.5,0
			c1.4,0,2-1,2-2.3c0-1.1-0.5-2.1-2.1-2h-0.4V91.4z"/>
		<path d="M189,88.1c-0.6-0.5-1.4-1-2.3-1c-1,0-1.6,0.6-1.6,1.5c0,2.6,4.7,2.7,4.7,7c0,2.8-1.6,4.9-4.5,4.9c-0.9,0-2-0.3-2.7-0.8v-3
			c0.7,0.5,1.4,0.8,2.4,0.8c1,0,1.8-0.7,1.8-1.7c0-1.2-1-1.7-1.8-2.3c-1.8-1.2-2.9-2.4-2.9-4.7c0-2.5,1.5-4.7,4.1-4.7
			c1,0,1.9,0.3,2.8,0.8V88.1z"/>
		<path d="M196.8,84.6v15.8h-3.1V84.6H196.8z"/>
		<path d="M208.4,84.6v2.9H206v12.9h-3.1V87.5h-2.5v-2.9H208.4z"/>
		<path d="M213.5,84.6l1.6,4.3l0.2,0.8h0l0.4-1.2l1.4-3.9h3.5l-3.7,8.2v7.6h-3.1v-7.6l-3.8-8.2H213.5z"/>
	</g>
</g>
</svg>
